Coordinates
version=1
nRows=12
nColumns=24
inDegrees=yes

Units are S.I. units (second, meters, Newtons, ...)
Angles are in degrees.

endheader
time	pelvis_tilt	pelvis_list	pelvis_rotation	pelvis_tx	pelvis_ty	pelvis_tz	hip_flexion_r	hip_adduction_r	hip_rotation_r	knee_angle_r	ankle_angle_r	subtalar_angle_r	mtp_angle_r	hip_flexion_l	hip_adduction_l	hip_rotation_l	knee_angle_l	ankle_angle_l	subtalar_angle_l	mtp_angle_l	lumbar_extension	lumbar_bending	lumbar_rotation
      0.72800000	     -4.30229715	      0.06563066	      0.70534533	     -0.46894791	      1.00853464	      0.30302313	     15.40028191	      2.19461185	     -0.39609921	    -20.93855883	      9.55149918	     -7.62377164	      2.35283556	     16.27250050	      0.07856793	     -1.58275073	    -65.76922021	     -8.50430149	     -2.84995615	      8.28294787	    -10.55731141	      5.60627124	      1.32674095
      0.73216667	     -4.29874661	      0.16737385	      0.80334635	     -0.46388085	      1.00941594	      0.30304919	     14.90660653	      2.08738804	     -0.43690498	    -20.60161329	      9.62754326	     -7.65778101	      2.33781096	     16.80599415	      0.16967890	     -1.55920960	    -65.69250982	     -7.92799875	     -3.20327801	      8.25945809	    -10.57133324	      5.44836170	      1.40356152
      0.73633333	     -4.28463940	      0.26769926	      0.90262583	     -0.45881949	      1.01029165	      0.30306583	     14.39655677	      1.98306341	     -0.47789142	    -20.25126496	      9.68200234	     -7.70562213	      2.32024053	     17.31648914	      0.26347966	     -1.53296128	    -65.54983186	     -7.35698914	     -3.56649576	      8.23314487	    -10.60709413	      5.27944302	      1.53297696
      0.74050000	     -4.21212356	      0.35884791	      0.98781945	     -0.45376408	      1.01126900	      0.30313246	     13.79856732	      1.90429479	     -0.46185290	    -19.83895682	      9.66340869	     -7.85159286	      2.25698471	     17.74852663	      0.33709341	     -1.52479019	    -65.33427068	     -6.83405114	     -3.94053187	      8.11691037	    -10.75082373	      5.05743056	      1.91673719
      0.74466667	     -4.19461256	      0.47006484	      1.06972458	     -0.44869946	      1.01215497	      0.30316565	     13.27423473	      1.79834252	     -0.46512114	    -19.46071263	      9.67271596	     -7.95758311	      2.18758569	     18.22180838	      0.43841509	     -1.52248383	    -65.04666864	     -6.26636830	     -4.27377223	      7.99079828	    -10.80031604	      4.85536733	      2.13219175
      0.74883333	     -4.20713504	      0.59316912	      1.14920661	     -0.44365155	      1.01295412	      0.30316611	     12.79997381	      1.67234786	     -0.49535056	    -19.12054511	      9.71796551	     -7.98418200	      2.16716440	     18.71708217	      0.55727798	     -1.52587996	    -64.70339782	     -5.67342398	     -4.59464052	      7.96173129	    -10.79412214	      4.68141942	      2.20014576
      0.75300000	     -4.14222789	      0.72586968	      1.22642036	     -0.43858126	      1.01389362	      0.30318917	     12.21587174	      1.54628193	     -0.49350996	    -18.72259131	      9.70871960	     -8.09969520	      2.09882816	     19.10019239	      0.68567096	     -1.52830510	    -64.26272672	     -5.14726076	     -4.92216885	      7.84116088	    -10.91469288	      4.43455807	      2.46858389
      0.75716667	     -4.15373679	      0.85503417	      1.30289082	     -0.43353332	      1.01467465	      0.30316992	     11.73930734	      1.41443299	     -0.52744875	    -18.37687404	      9.72176661	     -8.13816223	      2.07329850	     19.56034424	      0.81501619	     -1.53413702	    -63.78273090	     -4.55237502	     -5.21644452	      7.80390463	    -10.91573057	      4.24893953	      2.54940909
      0.76133333	     -4.06319804	      0.99256062	      1.37727738	     -0.42845097	      1.01562856	      0.30317559	     11.11773465	      1.28454292	     -0.52369631	    -17.95718499	      9.69790737	     -8.25729341	      2.00257162	     19.87844102	      0.95046246	     -1.53626851	    -63.20433065	     -4.04032333	     -5.49388527	      7.67766602	    -11.06266148	      4.00492874	      2.79784415
      0.76550000	     -4.04793537	      1.12748216	      1.44876025	     -0.42339974	      1.01642157	      0.30315541	     10.59863181	      1.15248625	     -0.53689956	    -17.57866288	      9.67802960	     -8.35128629	      1.92418767	     20.27087854	      1.08751505	     -1.54177153	    -62.58441957	     -3.48684455	     -5.73899806	      7.53338774	    -11.10792174	      3.78466851	      2.98020882
      0.76966667	     -4.05431189	      1.25534895	      1.52427257	     -0.41836419	      1.01713430	      0.30309445	     10.12007193	      1.02090890	     -0.58363119	    -17.23732096	      9.66014070	     -8.39214363	      1.89014561	     20.67465482	      1.22503538	     -1.53587026	    -61.91407244	     -2.90664930	     -5.97875726	      7.47723788	    -11.12586231	      3.60065590	      3.05572341
      0.77383333	     -4.01478852	      1.38312346	      1.56223975	     -0.41329850	      1.01793569	      0.30313886	      9.55761277	      0.91606522	     -0.49766936	    -16.81719413	      9.60004179	     -8.62604210	      1.15014992	     20.99748153	      1.33701153	     -1.57450211	    -61.16123275	     -2.33972563	     -6.11064378	      5.91858013	    -11.20282289	      3.36567269	      3.35380714
